<svg width="312" height="312" viewBox="0 0 312 312" fill="none" xmlns="http://www.w3.org/2000/svg">
<rect width="312" height="312" fill="#1E1E1E"/>
<circle cx="156" cy="156" r="155.5" fill="url(#paint0_linear_0_1)" stroke="#161515"/>
<mask id="path-2-outside-1_0_1" maskUnits="userSpaceOnUse" x="63" y="63" width="193" height="194" fill="black">
<rect fill="white" x="63" y="63" width="193" height="194"/>
<path d="M64.75 256V64.5H65L167.25 209.5L151.75 206L253.75 64.5H254.25V256H218V146.25L220.25 165L158 253.5H157.5L93.5 165L99.75 147.75V256H64.75Z"/>
</mask>
<path d="M64.75 256V64.5H65L167.25 209.5L151.75 206L253.75 64.5H254.25V256H218V146.25L220.25 165L158 253.5H157.5L93.5 165L99.75 147.75V256H64.75Z" fill="#26223F"/>
<path d="M64.75 256H63.75V257H64.75V256ZM64.75 64.5V63.5H63.75V64.5H64.75ZM65 64.5L65.8172 63.9237L65.5185 63.5H65V64.5ZM167.25 209.5L167.03 210.475L169.565 211.048L168.067 208.924L167.25 209.5ZM151.75 206L150.939 205.415L150.054 206.642L151.53 206.975L151.75 206ZM253.75 64.5V63.5H253.238L252.939 63.9152L253.75 64.5ZM254.25 64.5H255.25V63.5H254.25V64.5ZM254.25 256V257H255.25V256H254.25ZM218 256H217V257H218V256ZM218 146.25L218.993 146.131L217 146.25H218ZM220.25 165L221.068 165.575L221.289 165.262L221.243 164.881L220.25 165ZM158 253.5V254.5H158.519L158.818 254.075L158 253.5ZM157.5 253.5L156.69 254.086L156.989 254.5H157.5V253.5ZM93.5 165L92.5598 164.659L92.3795 165.157L92.6897 165.586L93.5 165ZM99.75 147.75H100.75L98.8098 147.409L99.75 147.75ZM99.75 256V257H100.75V256H99.75ZM64.75 256H65.75V64.5H64.75H63.75V256H64.75ZM64.75 64.5V65.5H65V64.5V63.5H64.75V64.5ZM65 64.5L64.1828 65.0763L166.433 210.076L167.25 209.5L168.067 208.924L65.8172 63.9237L65 64.5ZM167.25 209.5L167.47 208.525L151.97 205.025L151.75 206L151.53 206.975L167.03 210.475L167.25 209.5ZM151.75 206L152.561 206.585L254.561 65.0847L253.75 64.5L252.939 63.9152L150.939 205.415L151.75 206ZM253.75 64.5V65.5H254.25V64.5V63.5H253.75V64.5ZM254.25 64.5H253.25V256H254.25H255.25V64.5H254.25ZM254.25 256V255H218V256V257H254.25V256ZM218 256H219V146.25H218H217V256H218ZM218 146.25L217.007 146.369L219.257 165.119L220.25 165L221.243 164.881L218.993 146.131L218 146.25ZM220.25 165L219.432 164.425L157.182 252.925L158 253.5L158.818 254.075L221.068 165.575L220.25 165ZM158 253.5V252.5H157.5V253.5V254.5H158V253.5ZM157.5 253.5L158.31 252.914L94.3103 164.414L93.5 165L92.6897 165.586L156.69 254.086L157.5 253.5ZM93.5 165L94.4402 165.341L100.69 148.091L99.75 147.75L98.8098 147.409L92.5598 164.659L93.5 165ZM99.75 147.75H98.75V256H99.75H100.75V147.75H99.75ZM99.75 256V255H64.75V256V257H99.75V256Z" fill="#818181" mask="url(#path-2-outside-1_0_1)"/>
<defs>
<linearGradient id="paint0_linear_0_1" x1="156" y1="0" x2="156" y2="312" gradientUnits="userSpaceOnUse">
<stop stop-color="#501D7F"/>
<stop offset="0.628205" stop-color="#A962EB"/>
</linearGradient>
</defs>
</svg>
